<?xml version="1.0" encoding="UTF-8"?>
<svg version="1.1" xmlns="http://www.w3.org/2000/svg" width="32" height="32">
<path d="M0 0 C3.01600736 0.15052162 3.78368608 0.32076847 6.1875 2.3125 C7.0846875 3.3953125 7.0846875 3.3953125 8 4.5 C8.86625 4.9125 9.7325 5.325 10.625 5.75 C13.74197367 8.04671744 13.9527871 9.96646671 14.640625 13.66015625 C14.93171925 15.58631483 14.93171925 15.58631483 16 17.5 C16.1875 20.5 16.1875 20.5 16 23.5 C14 25.5 14 25.5 10.9375 25.75 C7.80551437 25.55114377 5.3679018 25.14446056 2.375 24.375 C-1.53393824 23.42417719 -3.32400462 23.75873903 -7 25.5 C-13.35384615 25.82307692 -13.35384615 25.82307692 -16 24.5 C-16.19294408 19.67639811 -15.75747614 16.00353262 -14 11.5 C-14.66 11.5 -15.32 11.5 -16 11.5 C-15.34 9.52 -14.68 7.54 -14 5.5 C-13.0925 5.4175 -12.185 5.335 -11.25 5.25 C-7.9212729 4.80687288 -7.9212729 4.80687288 -6.125 2.4375 C-3.75277361 0.2745877 -3.09049894 0.14255069 0 0 Z " fill="#581CE4" transform="translate(16,0.5)"/>
<path d="M0 0 C3.01600736 0.15052162 3.78368608 0.32076847 6.1875 2.3125 C7.0846875 3.3953125 7.0846875 3.3953125 8 4.5 C9.3303125 5.2115625 9.3303125 5.2115625 10.6875 5.9375 C13 7.5 13 7.5 14.0625 9.9375 C14 12.5 14 12.5 12.375 14.8125 C9.63099885 16.76218503 8.28993102 16.86554789 5 16.5 C5.639375 16.190625 6.27875 15.88125 6.9375 15.5625 C8.93610821 14.6654837 8.93610821 14.6654837 10 13.5 C10 11.85 10 10.2 10 8.5 C3.4 8.5 -3.2 8.5 -10 8.5 C-10 10.15 -10 11.8 -10 13.5 C-7.525 14.49 -7.525 14.49 -5 15.5 C-5 15.83 -5 16.16 -5 16.5 C-8.375 16.25 -8.375 16.25 -12 15.5 C-13.4375 13.4375 -13.4375 13.4375 -14 11.5 C-14.66 11.5 -15.32 11.5 -16 11.5 C-15.34 9.52 -14.68 7.54 -14 5.5 C-13.0925 5.4175 -12.185 5.335 -11.25 5.25 C-7.9212729 4.80687288 -7.9212729 4.80687288 -6.125 2.4375 C-3.75277361 0.2745877 -3.09049894 0.14255069 0 0 Z " fill="#D9BDE0" transform="translate(16,0.5)"/>
<path d="M0 0 C0.89460937 -0.00128906 1.78921875 -0.00257813 2.7109375 -0.00390625 C3.65195313 -0.00003906 4.59296875 0.00382813 5.5625 0.0078125 C6.97402344 0.00201172 6.97402344 0.00201172 8.4140625 -0.00390625 C9.75597656 -0.00197266 9.75597656 -0.00197266 11.125 0 C11.95128906 0.00112793 12.77757813 0.00225586 13.62890625 0.00341797 C15.5625 0.1328125 15.5625 0.1328125 16.5625 1.1328125 C16.6875 3.6328125 16.6875 3.6328125 16.5625 6.1328125 C14.97312444 7.72218806 13.32350154 7.26262393 11.125 7.265625 C9.78308594 7.26755859 9.78308594 7.26755859 8.4140625 7.26953125 C7.47304688 7.26566406 6.53203125 7.26179687 5.5625 7.2578125 C4.15097656 7.26361328 4.15097656 7.26361328 2.7109375 7.26953125 C1.81632813 7.26824219 0.92171875 7.26695313 0 7.265625 C-0.82628906 7.26449707 -1.65257812 7.26336914 -2.50390625 7.26220703 C-4.4375 7.1328125 -4.4375 7.1328125 -5.4375 6.1328125 C-5.5625 3.6328125 -5.5625 3.6328125 -5.4375 1.1328125 C-3.84812444 -0.45656306 -2.19850154 0.00300107 0 0 Z " fill="#321857" transform="translate(10.4375,7.8671875)"/>
<path d="M0 0 C0.93134766 0.00322266 1.86269531 0.00644531 2.82226562 0.00976562 C4.26182617 0.02233398 4.26182617 0.02233398 5.73046875 0.03515625 C6.70951172 0.03966797 7.68855469 0.04417969 8.69726562 0.04882812 C11.10422986 0.06056941 13.51106732 0.07699206 15.91796875 0.09765625 C15.91796875 1.74765625 15.91796875 3.39765625 15.91796875 5.09765625 C11.95796875 5.09765625 7.99796875 5.09765625 3.91796875 5.09765625 C3.91796875 4.43765625 3.91796875 3.77765625 3.91796875 3.09765625 C3.3559375 3.42507812 2.79390625 3.7525 2.21484375 4.08984375 C-0.35063089 5.21551119 -2.05045402 5.30446735 -4.83203125 5.22265625 C-5.63125 5.20460938 -6.43046875 5.1865625 -7.25390625 5.16796875 C-7.8571875 5.14476562 -8.46046875 5.1215625 -9.08203125 5.09765625 C-9.41203125 3.77765625 -9.74203125 2.45765625 -10.08203125 1.09765625 C-6.65629188 0.32237146 -3.5096388 -0.02153153 0 0 Z " fill="#6637D1" transform="translate(13.08203125,26.90234375)"/>
<path d="M0 0 C0.66 0 1.32 0 2 0 C4.08901197 3.39464446 4.34361606 6.04841529 4 10 C2 12 2 12 -1.5 12.25 C-5 12 -5 12 -7 10 C-4.03 10 -1.06 10 2 10 C2 8.68 2 7.36 2 6 C1.01 6 0.02 6 -1 6 C-1 5.34 -1 4.68 -1 4 C-4.96 4 -8.92 4 -13 4 C-13.33 3.34 -13.66 2.68 -14 2 C-12.20843648 1.83222817 -10.4167455 1.66581706 -8.625 1.5 C-7.62726562 1.4071875 -6.62953125 1.314375 -5.6015625 1.21875 C-3 1 -3 1 -1 1 C-0.67 0.67 -0.34 0.34 0 0 Z " fill="#5923C5" transform="translate(28,14)"/>
<path d="M0 0 C1.90625 0.47265625 1.90625 0.47265625 4.40625 2.97265625 C4.90125 3.79765625 5.39625 4.62265625 5.90625 5.47265625 C2.97970473 6.44817134 0.95970004 6.63743713 -2.09375 6.66015625 C-3.393125 6.68142578 -3.393125 6.68142578 -4.71875 6.703125 C-7.09375 6.47265625 -7.09375 6.47265625 -10.09375 4.47265625 C-7.12775459 0.51799571 -4.73984662 -0.20338894 0 0 Z " fill="#8640F9" transform="translate(18.09375,0.52734375)"/>
<path d="M0 0 C0.99 0.66 1.98 1.32 3 2 C3 2.66 3 3.32 3 4 C5.97 4.495 5.97 4.495 9 5 C8 6.5 8 6.5 6 8 C3.28153765 8.27345479 0.74322801 8.13491285 -2 8 C-2 5.69 -2 3.38 -2 1 C-1.34 0.67 -0.68 0.34 0 0 Z " fill="#7130E6" transform="translate(2,17)"/>
<path d="M0 0 C2.97 0 5.94 0 9 0 C6 2 6 2 4 3 C4 4.65 4 6.3 4 8 C6.475 8.99 6.475 8.99 9 10 C9 10.33 9 10.66 9 11 C5.625 10.75 5.625 10.75 2 10 C0.5625 7.9375 0.5625 7.9375 0 6 C-0.66 6 -1.32 6 -2 6 C-1.34 4.02 -0.68 2.04 0 0 Z " fill="#E9D8F6" transform="translate(2,6)"/>
<path d="M0 0 C0.33 1.65 0.66 3.3 1 5 C-1.97 5 -4.94 5 -8 5 C-8.33 3.68 -8.66 2.36 -9 1 C-5.846632 0.29925156 -3.27275026 0 0 0 Z " fill="#6336CB" transform="translate(12,27)"/>
<path d="M0 0 C4.29 0 8.58 0 13 0 C13 0.33 13 0.66 13 1 C11.8553125 1.185625 11.8553125 1.185625 10.6875 1.375 C7.79732864 1.88102792 7.79732864 1.88102792 5 4 C2.3125 4.125 2.3125 4.125 0 4 C0 2.66666667 0 1.33333333 0 0 Z " fill="#8752D9" transform="translate(7,15)"/>
<path d="M0 0 C2.97 0 5.94 0 9 0 C9 1.32 9 2.64 9 4 C7.68 4 6.36 4 5 4 C5 3.34 5 2.68 5 2 C3.68 2.33 2.36 2.66 1 3 C0.67 2.01 0.34 1.02 0 0 Z " fill="#6035C7" transform="translate(12,28)"/>
<path d="M0 0 C0.33 0.66 0.66 1.32 1 2 C0.113125 1.938125 -0.77375 1.87625 -1.6875 1.8125 C-5.36731392 2.02079135 -6.95389395 3.05387669 -10 5 C-10.66 4.67 -11.32 4.34 -12 4 C-8.41084094 -0.78554541 -5.58334594 -0.37222306 0 0 Z " fill="#6B2FCA" transform="translate(20,1)"/>
<path d="M0 0 C1.485 0.99 1.485 0.99 3 2 C3.1875 4.625 3.1875 4.625 3 7 C1.68 7 0.36 7 -1 7 C-1.04254356 5.00045254 -1.04080783 2.99958364 -1 1 C-0.67 0.67 -0.34 0.34 0 0 Z " fill="#9A5DFC" transform="translate(2,17)"/>
<path d="M0 0 C0 1.32 0 2.64 0 4 C-1.98 4 -3.96 4 -6 4 C-5.67 3.01 -5.34 2.02 -5 1 C-3 0 -3 0 0 0 Z " fill="#8744FE" transform="translate(30,20)"/>
<path d="M0 0 C0.99 0.33 1.98 0.66 3 1 C1.84826645 3.46800047 0.95216435 5.04783565 -1 7 C-3.625 7.125 -3.625 7.125 -6 7 C-5.071875 6.6596875 -5.071875 6.6596875 -4.125 6.3125 C-1.38589791 4.62070165 -0.94975528 3.00755839 0 0 Z " fill="#D499EA" transform="translate(27,10)"/>
<path d="M0 0 C1.32 0 2.64 0 4 0 C4.33 1.32 4.66 2.64 5 4 C3.35 4 1.7 4 0 4 C0 2.68 0 1.36 0 0 Z " fill="#723EEC" transform="translate(8,27)"/>
<path d="M0 0 C0.99 0 1.98 0 3 0 C2.1875 2.4375 2.1875 2.4375 1 5 C0.01 5.33 -0.98 5.66 -2 6 C-1.34 4.02 -0.68 2.04 0 0 Z " fill="#8C6EDA" transform="translate(2,6)"/>
</svg>
